<svg xmlns="http://www.w3.org/2000/svg" viewBox="0 0 60.84 42.52">
  <path fill="#f39200" d="M58.93 1.46a39.093 39.093 0 0 1-23.69 8.06H25.12c-5.3.02-10.28 2.58-13.39 6.87C3.74 27 12.16 42.97 25.4 42.51c5.78-.04 11.09-3.18 13.9-8.23 2.78-4.57 3.09-10.23.83-15.08a34.51 34.51 0 0 0-4.76-.33h-3.89c6.25 5.03 2.69 16.12-5.29 16.69-11.68 1.21-14.94-15.74-3.51-18.82 1.55-.6 10.9-.22 12.69-.32 9.35.08 18.37 3.46 25.47 9.53V0l-1.91 1.46ZM0 16.42h8.77c1.7-2.88 4.13-5.26 7.05-6.9H0c.07.31.11.63.11.96-.04.71.11 5.34-.11 5.94Z" class="cls-1"/>
</svg>